<?xml version="1.0" encoding="utf-8"?>
<!-- Generator: Adobe Illustrator 25.2.3, SVG Export Plug-In . SVG Version: 6.00 Build 0)  -->
<svg version="1.1" id="Layer_1" xmlns:mydata="http://www.w3.org/2000/svg"
	 xmlns="http://www.w3.org/2000/svg" xmlns:xlink="http://www.w3.org/1999/xlink" x="0px" y="0px" width="436.4px" height="373px"
	 viewBox="0 0 436.4 373" style="enable-background:new 0 0 436.4 373;" xml:space="preserve">
<style type="text/css">
	.st0{fill-rule:evenodd;clip-rule:evenodd;fill:#00F2EA;}
	.st1{fill:none;stroke:#00F2EA;stroke-width:5;stroke-miterlimit:10;}
</style>
<g>
	<g>
		<g>
			<path class="st0" d="M296.8,105.7c-10.7-12.1-28.1-17.1-46.7-13.2c-17.6,3.6-28.5,11.7-41.9,24.6c-7,6.8-14.2,17.1-22.1,27.8
				c-16.3,22.8-34.9,48.5-54.2,48.5c-2.2,0-3.7,1.7-3.7,3.7s1.5,3.5,3.5,3.5c23,0,42.7-27.2,59.8-51.2c7.7-10.6,14.7-20.4,21.3-26.8
				c12.7-12.3,22.6-19.5,38.4-22.8c16-3.3,30.9,0.9,39.9,11c7.9,9,11.7,22.6,8.6,30.9c-0.9,2.3-2.3,4.1-4.1,5.2
				c-0.2-1.7-0.6-3.5-1.1-5.2c-4.3-14.7-17.1-24.1-33.5-25.4c-16.7-1.1-31.8,6.8-46.3,24.3c-5.3,6.1-9.9,12.3-14.3,18.2
				c-10.1,13.5-19.2,25.6-29,31.1c-0.2,0.3-0.5,0.6-0.8,0.7c-0.2,0.1-0.3,0.3-0.5,0.4H170c-0.1,0.1-0.2,0.1-0.2,0.2
				c-0.2,0.3-0.4,0.5-0.6,0.7c-0.1,0.2-0.3,0.4-0.5,0.6c-0.2,0.5-0.5,0.9-1,1.1c-0.2,0.3-0.4,0.6-0.7,0.9c-0.2,0.4-0.4,0.8-0.8,1
				c0,1.9-1,3.8-2.9,4.6c-0.1,0.1-0.1,0.2-0.2,0.3c2-0.2,4-0.7,5.9-1.3c0.1-0.7,0.4-1.3,1-1.7c0.2-0.5,0.6-0.8,1.1-1.1
				c0.2-0.2,0.4-0.4,0.7-0.6c0.1-0.1,0.2-0.3,0.3-0.4l0,0c0.2-0.2,0.5-0.4,0.8-0.5c0.3-0.3,0.6-0.6,1.1-0.8c0.3-0.5,0.8-0.8,1.6-0.9
				c0.3-0.4,0.7-0.6,1.2-0.7c0.4-0.4,1-0.7,1.7-0.7l0,0c0.4-0.3,0.9-0.5,1.5-0.5c0.1,0,0.1,0,0.2,0c0.4-0.5,1-0.8,1.8-0.8
				c0.5,0,0.8,0.1,1.2,0.3c7.9-6.9,15.2-16.9,23-27.6c4.6-5.9,9-11.9,14-18c13.1-16,25.8-22.8,40.1-21.7
				c13.4,1.1,23.7,8.6,27.2,20.4c1.5,4.6,1.7,11.4-2,16.4c-2.4,3.3-6.5,5.4-12,6.1c1.2-6,0.2-11.5-2.9-16c-3.3-5-9-8.5-15.6-9.6
				c-9.6-1.7-19.9,2.2-27.4,10.1c-5.2,5.7-9.8,12.7-14,19.5c-6.8,10.5-13,20.6-20.9,22.5c0.6,0.4,0.9,1,1,1.7c0.1,0,0.2,0,0.4,0
				c1.8,0,2.5,1.5,2.4,2.8l0,0c0.2,0.2,0.4,0.5,0.5,0.7c0.3,0.2,0.6,0.5,0.7,0.8c8.8-3.8,15.2-13.8,21.8-24.4
				c4.2-6.6,8.4-13.1,13.2-18.4c5.9-6.1,13.5-9.2,21-7.9c4.6,0.9,8.5,3.3,10.7,6.6c1.9,3.1,2.6,7,1.5,11.2
				c-0.9,3.9-5.2,9.4-11.6,9.4h-0.4c-2.2-0.2-4.1-1.7-4.8-3.9c-0.6-2.2,0.7-4.3,3.3-6.1c1.8-1.1,2.2-3.2,1.1-5s-3.2-2.2-5-1.1
				c-5.5,3.5-7.9,8.7-6.4,14s6.3,9,11.6,9.2h0.7c6.7,0,12.4-3.6,15.8-8.3c12-0.2,18.1-5.1,21.3-9.4c2-2.9,3.4-6.2,4-9.8
				c5.2-1.4,9.2-5.2,11.3-10.8C310.8,133.1,306.4,116.7,296.8,105.7z"/>
		</g>
	</g>
</g>
<path class="st1" d="M37.3,188.6c18.3,0,18.3,24,36.6,24s18.3-24,36.6-24s18.3,24,36.6,24s18.3-24,36.6-24s18.3,24,36.6,24
	c18.3,0,18.3-24,36.6-24c18.3,0,18.3,24,36.6,24c18.3,0,18.3-24,36.6-24c18.3,0,18.3,24,36.6,24s18.3-24,36.6-24"/>
</svg>
