<svg xmlns:mydata="http://www.w3.org/2000/svg" xmlns="http://www.w3.org/2000/svg" xmlns:xlink="http://www.w3.org/1999/xlink" mydata:contrastcolor="ffffff" mydata:template="Contrast" mydata:presentation="2.5" mydata:layouttype="undefined" mydata:specialfontid="undefined" mydata:id1="010" mydata:id2="021" mydata:companyname="AquaPado" mydata:companytagline="" version="1.1" viewBox="0 0 550 470"><g fill="#000000" fill-rule="none" stroke="none" stroke-width="1" stroke-linecap="butt" stroke-linejoin="miter" stroke-miterlimit="10" stroke-dasharray="" stroke-dashoffset="0" font-family="none" font-weight="none" font-size="none" text-anchor="none" style="mix-blend-mode: normal"><g data-paper-data="{&quot;isGlobalGroup&quot;:true,&quot;bounds&quot;:{&quot;x&quot;:65,&quot;y&quot;:139.65551595927042,&quot;width&quot;:420,&quot;height&quot;:190.68896808145917}}"><g data-paper-data="{&quot;isPrimaryText&quot;:true}" fill-rule="nonzero"><path d="M91.56156,274.9149l-26.56156,52.15589h11.68113l16.14526,-31.69531l14.88043,31.69531h11.53233l-24.6271,-52.15589z" data-paper-data="{&quot;glyphName&quot;:&quot;A&quot;,&quot;glyphIndex&quot;:0,&quot;firstGlyphOfWord&quot;:true,&quot;word&quot;:1}" fill="#00f2ea"/><path d="M182.03454,324.68992l-7.51461,-7.51461c3.4225,-4.53853 5.43136,-10.11869 5.43136,-16.21966c0,-14.88043 -12.12755,-27.00797 -27.00797,-27.00797c-14.88043,0 -27.00797,12.12755 -27.00797,27.00797c0,14.88043 12.12755,27.00797 27.00797,27.00797c5.95217,0 11.38353,-1.93446 15.84765,-5.20815l7.58902,7.58902zM155.24978,297.90516l-5.65456,5.65456l11.53233,11.53233c-2.45527,1.33924 -5.20815,2.15766 -8.18423,2.15766c-9.00266,0 -16.29407,-7.29141 -16.29407,-16.29407c0,-9.00266 7.29141,-16.29407 16.29407,-16.29407c9.00266,0 16.29407,7.29141 16.29407,16.29407c0,3.12489 -0.89283,6.02657 -2.38087,8.55624z" data-paper-data="{&quot;glyphName&quot;:&quot;Q&quot;,&quot;glyphIndex&quot;:1,&quot;word&quot;:1}" fill="#00f2ea"/><path d="M228.08946,307.80064v-32.88574h-10.4163v32.96014h0.0744c-0.0744,2.60407 -1.04163,4.98494 -2.90168,6.845c-1.86005,1.86005 -4.24092,2.82728 -6.845,2.82728c-2.60407,0 -5.05934,-0.96723 -6.9194,-2.82728c-1.86005,-1.86005 -2.90168,-4.31532 -2.90168,-6.9194v-32.88574h-10.4163v32.96014c0.0744,11.08592 9.07706,20.08857 20.23738,20.08857c11.08592,0 20.16298,-9.00266 20.16298,-20.16298z" data-paper-data="{&quot;glyphName&quot;:&quot;U&quot;,&quot;glyphIndex&quot;:2,&quot;word&quot;:1}" fill="#00f2ea"/><path d="M255.84145,274.9149l-26.56156,52.15589h11.68113l16.14526,-31.69531l14.88043,31.69531h11.53233l-24.6271,-52.15589z" data-paper-data="{&quot;glyphName&quot;:&quot;A&quot;,&quot;glyphIndex&quot;:3,&quot;word&quot;:1}" fill="#00f2ea"/><path d="M290.81045,274.9149v52.15589h10.4163v-20.8326h6.47298c8.63065,0 15.62445,-6.9938 15.62445,-15.62445c0,-8.63065 -6.9938,-15.69885 -15.62445,-15.69885zM301.22675,295.8219v-10.4907h6.47298c2.82728,0 5.20815,2.38087 5.20815,5.28255c0,2.90168 -2.38087,5.20815 -5.20815,5.20815z" data-paper-data="{&quot;glyphName&quot;:&quot;P&quot;,&quot;glyphIndex&quot;:4,&quot;word&quot;:1}" fill="#00f2ea"/><path d="M349.14172,274.9149l-26.56156,52.15589h11.68113l16.14526,-31.69531l14.88043,31.69531h11.53233l-24.6271,-52.15589z" data-paper-data="{&quot;glyphName&quot;:&quot;A&quot;,&quot;glyphIndex&quot;:5,&quot;word&quot;:1}" fill="#00f2ea"/><path d="M381.28344,274.9149v52.08149h4.24092v0.0744h10.4907c3.4969,0 6.9194,-0.66962 10.11869,-2.08326c3.12489,-1.26484 5.87777,-3.19929 8.25864,-5.58016c2.45527,-2.38087 4.31532,-5.13375 5.58016,-8.25864c1.41364,-3.19929 2.08326,-6.62179 2.08326,-10.19309c0,-3.4969 -0.66962,-6.9194 -2.08326,-10.11869c-1.26484,-3.12489 -3.12489,-5.87777 -5.58016,-8.33304c-2.38087,-2.38087 -5.13375,-4.24092 -8.25864,-5.58016c-3.19929,-1.33924 -6.62179,-2.00886 -10.11869,-2.00886zM391.69973,316.65449v-31.32329h4.31532c8.63065,0 15.62445,6.9938 15.62445,15.62445c0,8.63065 -6.9938,15.69885 -15.62445,15.69885z" data-paper-data="{&quot;glyphName&quot;:&quot;D&quot;,&quot;glyphIndex&quot;:6,&quot;word&quot;:1}" fill="#00f2ea"/><path d="M457.99203,273.94767c-14.88043,0 -27.00797,12.12755 -27.00797,27.00797c0,14.88043 12.12755,27.00797 27.00797,27.00797c14.88043,0 27.00797,-12.12755 27.00797,-27.00797c0,-14.88043 -12.12755,-27.00797 -27.00797,-27.00797zM457.99203,284.66158c9.00266,0 16.29407,7.29141 16.29407,16.29407c0,9.00266 -7.29141,16.29407 -16.29407,16.29407c-9.00266,0 -16.29407,-7.29141 -16.29407,-16.29407c0,-9.00266 7.29141,-16.29407 16.29407,-16.29407z" data-paper-data="{&quot;glyphName&quot;:&quot;O&quot;,&quot;glyphIndex&quot;:7,&quot;lastGlyphOfWord&quot;:true,&quot;word&quot;:1}" fill="#00f2ea"/></g><g data-paper-data="{&quot;fillRule&quot;:&quot;evenodd&quot;,&quot;fillRuleOriginal&quot;:&quot;evenodd&quot;,&quot;isIcon&quot;:true,&quot;iconStyle&quot;:&quot;standalone&quot;,&quot;selectedEffects&quot;:{&quot;container&quot;:&quot;&quot;,&quot;transformation&quot;:&quot;&quot;,&quot;pattern&quot;:&quot;&quot;},&quot;bounds&quot;:{&quot;x&quot;:184.97178546468857,&quot;y&quot;:139.65551595927042,&quot;width&quot;:180.05642907062284,&quot;height&quot;:109.41968264641076},&quot;iconType&quot;:&quot;icon&quot;,&quot;rawIconId&quot;:&quot;b0386a44-da45-408b-9033-9ffd991a63ff&quot;,&quot;isSvgStockIcon&quot;:true,&quot;combineTerms&quot;:&quot;wave&quot;,&quot;combineTermsExtended&quot;:{&quot;icon&quot;:[&quot;wave&quot;]},&quot;isDetailed&quot;:false,&quot;suitableAsStandaloneIcon&quot;:true}" fill-rule="evenodd"><path d="M188.48005,249.07515c-1.9734,0 -3.50826,-1.53486 -3.50826,-3.50826c0,-1.9734 1.53486,-3.72753 3.72753,-3.72753c19.29546,0 37.93312,-25.65419 54.15884,-48.45791c7.89359,-10.74406 15.1294,-21.04959 22.14593,-27.84685c13.37526,-12.93673 24.33859,-21.04959 41.87991,-24.55785c18.63766,-3.9468 35.95972,1.09634 46.70378,13.15599c9.64773,10.96333 14.03306,27.40833 9.86699,38.37165c-2.06943,5.64414 -6.07609,9.35106 -11.32753,10.84405c-0.63127,3.5962 -2.00015,6.93782 -4.02113,9.76701c-3.21094,4.28118 -9.34755,9.18946 -21.26645,9.41991c-3.40608,4.71905 -9.06536,8.34068 -15.78961,8.34068h-0.6578c-5.2624,-0.21926 -10.08627,-3.9468 -11.62113,-9.20919c-1.53486,-5.2624 0.87706,-10.52479 6.35873,-14.03306c1.75414,-1.09634 3.9468,-0.6578 5.04313,1.09634c1.09634,1.75414 0.6578,3.9468 -1.09634,5.04313c-2.6312,1.75414 -3.9468,3.9468 -3.289,6.13947c0.6578,2.19266 2.6312,3.72753 4.82387,3.9468h0.43854c6.35873,0 10.74406,-5.48167 11.62113,-9.42847c1.09634,-4.16606 0.43854,-8.11287 -1.53486,-11.18259c-2.19266,-3.289 -6.13947,-5.70093 -10.74406,-6.57799c-7.45507,-1.3156 -15.1294,1.75414 -21.04959,7.89359c-4.82387,5.2624 -8.98993,11.84039 -13.15599,18.4184c-8.33213,13.37526 -16.445,26.09273 -29.38172,26.09273c-1.9734,0 -3.72753,-1.53486 -3.72753,-3.72753c0,-2.19266 1.53486,-3.72753 3.72753,-3.72753c9.20919,0 16.00646,-11.18259 23.46153,-22.80373c4.16606,-6.79727 8.77067,-13.8138 14.03306,-19.51472c7.45507,-7.89359 17.7606,-11.84039 27.40833,-10.08627c6.57799,1.09634 12.27893,4.6046 15.56792,9.64773c3.09517,4.53947 4.05424,10.04964 2.87744,15.98278c5.50557,-0.67599 9.55476,-2.75311 12.03269,-6.11578c3.72753,-5.04313 3.50826,-11.84039 1.9734,-16.445c-3.50826,-11.84039 -13.8138,-19.29546 -27.18905,-20.39179c-14.25233,-1.09634 -26.96979,5.70093 -40.12579,21.70739c-5.04313,6.13947 -9.42847,12.05966 -14.03306,17.97986c-14.69086,20.17252 -27.62759,37.49458 -45.82671,37.49458c-1.9734,0 -3.72753,-1.53486 -3.72753,-3.72753c0,-2.19266 1.53486,-3.72753 3.72753,-3.72753c14.4716,0 26.31199,-16.00646 40.12579,-34.42486c4.38533,-5.9202 8.98993,-12.05966 14.25233,-18.19912c14.4716,-17.54132 29.60099,-25.43493 46.26525,-24.33859c16.445,1.3156 29.16245,10.74406 33.54778,25.43493c0.54992,1.7412 0.92728,3.49204 1.14041,5.22842c1.82188,-1.14435 3.17892,-2.93795 4.122,-5.22842c3.06973,-8.33213 -0.6578,-21.92666 -8.55139,-30.91659c-8.98993,-10.08627 -23.90005,-14.25233 -39.90652,-10.96333c-15.7872,3.289 -25.65419,10.52479 -38.37165,22.80373c-6.57799,6.35873 -13.59453,16.22572 -21.26886,26.75053c-17.1028,24.11933 -36.83678,51.30838 -59.85977,51.30838z" data-paper-data="{&quot;isPathIcon&quot;:true}" fill="#00f2ea"/></g></g></g></svg>